<?xml version="1.0" standalone="no"?>
<!DOCTYPE svg PUBLIC "-//W3C//DTD SVG 20010904//EN" "http://www.w3.org/TR/2001/REC-SVG-20010904/DTD/svg10.dtd">
<svg xmlns="http://www.w3.org/2000/svg" version="1.0" width="512.000000pt" height="512.000000pt" viewBox="0 0 512.000000 512.000000" preserveAspectRatio="xMidYMid meet">
<metadata>
Created by potrace 1.16, written by Peter Selinger 2001-2019
<meta name="Producer" content="Online-Convert"/></metadata>
<g transform="translate(0.000000,512.000000) scale(0.100000,-0.100000)" fill="#000000" stroke="none">
<path d="M1294 5050 c-39 -4 -81 -11 -93 -15 -29 -9 -51 -55 -51 -109 0 -40 -25 -126 -37 -126 -16 0 -64 34 -96 69 -47 51 -79 60 -126 35 -55 -29 -172 -126 -216 -180 -105 -126 -109 -152 -35 -230 28 -29 50 -61 50 -72 0 -25 -38 -41 -114 -49 -67 -6 -92 -21 -101 -62 -5 -25 -12 -28 -76 -39 -38 -7 -92 -23 -118 -37 -100 -50 -179 -158 -201 -274 -15 -78 -14 -2482 1 -2553 25 -120 104 -219 218 -275 l56 -28 793 -3 792 -2 0 -169 0 -169 -152 -4 c-134 -3 -158 -6 -195 -25 -88 -48 -106 -105 -101 -338 3 -196 13 -228 87 -280 l43 -30 938 0 938 0 43 30 c74 52 84 84 87 280 5 233 -13 290 -101 338 -37 19 -61 22 -194 25 l-153 4 0 169 0 169 793 2 792 3 55 26 c115 55 196 159 220 284 8 43 10 405 8 1310 l-3 1250 -21 52 c-44 107 -120 184 -222 225 l-57 23 -1216 3 -1217 2 -6 25 c-9 34 -40 48 -124 56 -40 3 -78 11 -84 17 -14 14 10 54 68 108 34 32 44 48 44 73 0 60 -126 219 -243 307 -79 59 -106 57 -182 -16 -30 -27 -60 -50 -68 -50 -23 0 -37 46 -37 120 0 85 -14 104 -92 119 -78 15 -213 20 -294 11z m213 -168 c7 -4 17 -31 23 -60 14 -73 44 -128 88 -156 73 -48 145 -44 236 14 l49 31 44 -43 c25 -24 54 -56 65 -71 l20 -28 -20 -22 c-57 -63 -79 -168 -48 -240 24 -59 113 -117 177 -117 39 0 47 -25 41 -126 l-4 -81 -56 -6 c-113 -12 -192 -94 -192 -201 0 -54 28 -126 61 -162 l20 -21 -71 -67 -70 -66 -50 34 c-60 41 -138 60 -194 47 -70 -17 -134 -98 -151 -193 -5 -25 -13 -38 -28 -42 -29 -8 -107 -8 -145 0 -27 5 -31 11 -37 53 -15 100 -71 184 -137 201 -55 15 -106 5 -174 -36 l-58 -35 -44 43 c-24 24 -53 56 -64 71 l-20 28 20 22 c62 68 82 189 42 255 -26 43 -102 90 -159 98 -25 4 -49 12 -53 18 -9 13 -10 142 -2 172 5 17 16 22 60 27 174 18 243 176 143 325 -35 51 -31 62 38 119 69 57 69 57 106 29 69 -53 157 -71 224 -45 64 24 133 130 133 204 0 13 6 26 13 28 20 9 161 7 174 -1z m-1053 -854 c11 -128 21 -157 61 -174 19 -8 50 -14 70 -14 46 0 105 -25 105 -44 0 -8 -24 -41 -54 -74 -77 -82 -78 -93 -17 -184 56 -83 189 -215 243 -241 46 -22 74 -13 136 45 30 28 60 48 69 46 30 -6 44 -48 38 -114 -8 -86 10 -107 104 -122 98 -17 247 -15 308 3 84 25 95 39 103 135 11 121 44 137 117 56 42 -47 69 -65 98 -66 54 -1 265 180 321 275 34 58 27 84 -37 152 -81 85 -64 115 70 123 l86 5 17 35 c10 19 20 62 23 95 3 33 8 79 11 103 l5 42 1204 -2 1203 -3 44 -30 c28 -20 52 -49 71 -84 l27 -55 0 -1103 0 -1103 -2320 0 -2320 0 0 1103 0 1102 24 51 c32 68 102 122 162 123 20 1 22 -6 28 -81z m4426 -2523 c0 -104 -39 -172 -125 -218 l-40 -22 -2155 0 -2155 0 -40 22 c-86 46 -125 114 -125 218 l0 65 2320 0 2320 0 0 -65z m-1870 -575 l0 -170 -450 0 -450 0 0 170 0 170 450 0 450 0 0 -170z m445 -510 l0 -165 -895 0 -895 0 -3 154 c-2 105 1 158 9 167 10 12 151 14 898 12 l886 -3 0 -165z"/>
<path d="M1251 4594 c-169 -45 -310 -179 -362 -344 -43 -137 -22 -317 52 -435 100 -161 257 -247 449 -247 243 0 433 144 504 381 20 69 21 199 1 276 -46 176 -194 324 -370 370 -73 19 -202 18 -274 -1z m259 -169 c109 -38 197 -137 226 -258 41 -163 -44 -330 -204 -405 -49 -23 -70 -27 -147 -27 -79 0 -97 4 -146 29 -71 35 -139 104 -176 176 -24 48 -27 67 -28 145 0 77 4 98 26 146 83 175 270 256 449 194z"/>
<path d="M2743 3870 c-92 -19 -156 -69 -195 -155 l-23 -50 0 -770 c0 -703 1 -773 17 -807 28 -62 65 -103 120 -134 l53 -29 884 -3 c991 -3 939 -6 1026 70 25 22 56 59 68 82 l22 41 3 763 c2 504 -1 776 -8 802 -19 70 -69 132 -134 165 l-60 30 -865 2 c-476 0 -885 -3 -908 -7z m1746 -173 c13 -6 34 -25 45 -40 18 -25 21 -45 24 -163 l4 -134 -936 0 -936 0 0 130 c0 97 4 139 15 160 32 62 -11 59 915 59 651 1 851 -2 869 -12z m69 -1016 c-3 -497 -3 -510 -24 -538 -11 -15 -36 -36 -55 -45 -32 -17 -93 -18 -857 -18 -881 0 -862 -1 -907 50 -19 21 -20 38 -23 541 l-3 519 936 0 936 0 -3 -509z"/>
<path d="M2810 3590 c-13 -13 -20 -33 -20 -60 0 -27 7 -47 20 -60 19 -19 33 -20 478 -20 l459 0 21 23 c30 32 29 87 -1 115 -23 22 -25 22 -480 22 -444 0 -458 -1 -477 -20z"/>
<path d="M3890 3590 c-13 -13 -20 -33 -20 -60 0 -64 24 -80 119 -80 100 0 126 17 126 80 0 63 -26 80 -126 80 -66 0 -82 -3 -99 -20z"/>
<path d="M4221 3584 c-28 -36 -27 -85 2 -112 20 -19 35 -22 104 -22 76 0 83 2 102 26 12 15 21 39 21 54 0 15 -9 39 -21 54 -19 24 -26 26 -104 26 -78 0 -85 -2 -104 -26z"/>
<path d="M3648 3020 c-21 -13 -30 -42 -123 -388 -47 -178 -73 -292 -69 -305 12 -39 35 -57 75 -57 74 0 79 10 169 363 81 320 85 343 52 380 -17 19 -76 23 -104 7z"/>
<path d="M3181 2838 c-156 -153 -150 -146 -151 -188 0 -31 13 -47 133 -167 128 -128 134 -133 174 -133 33 0 46 5 62 26 41 52 29 78 -86 195 l-84 86 86 78 c93 85 120 123 109 158 -12 40 -45 67 -82 67 -31 0 -49 -13 -161 -122z"/>
<path d="M3849 2950 c-23 -13 -42 -65 -35 -93 3 -12 47 -64 99 -114 l93 -91 -93 -95 c-102 -103 -113 -129 -72 -181 16 -21 29 -26 62 -26 40 0 46 5 174 134 176 177 177 157 -6 338 -124 124 -142 138 -172 138 -19 0 -41 -5 -50 -10z"/>
<path d="M707 2590 c-108 -19 -199 -88 -246 -189 -35 -76 -38 -211 -4 -283 30 -66 96 -133 162 -165 l56 -28 715 0 715 0 46 23 c75 37 125 87 161 159 28 57 33 77 33 142 0 112 -24 172 -99 246 -107 106 -57 99 -826 101 -366 1 -686 -2 -713 -6z m1373 -180 c93 -47 127 -156 74 -237 -15 -22 -46 -52 -68 -65 l-41 -23 -662 0 -661 0 -43 30 c-73 52 -101 143 -66 212 19 36 65 79 97 92 16 6 270 10 678 10 633 1 654 0 692 -19z"/>
<path d="M827 2328 c-38 -30 -43 -92 -9 -130 14 -17 46 -18 401 -18 212 0 391 4 397 8 39 26 44 93 9 127 l-24 25 -379 0 c-287 0 -382 -3 -395 -12z"/>
<path d="M2381 1464 c-28 -36 -27 -79 4 -109 23 -24 28 -25 175 -25 147 0 152 1 175 25 31 30 32 73 4 109 l-20 26 -159 0 -159 0 -20 -26z"/>
</g>
</svg>
