<svg xmlns="http://www.w3.org/2000/svg" width="50" height="50"><path d="M20.13 32.5a9.455 9.455 0 0 1-4.53-8.04V8.9c0-1.63.39-3.19 1.11-4.57L7.54 9.88A9.442 9.442 0 0 0 3 17.92v14.15c0 1.59.42 3.14 1.16 4.5a7.904 7.904 0 0 0 2.88 2.74c2.53 1.42 5.51 1.36 7.98-.15l8.02-4.9-2.91-1.76zm22.71-5.36-8.44-5.05v2.29c0 3.25-1.72 6.33-4.49 8.02l-13.84 8.47c-1.52.93-3.19 1.42-4.87 1.46l8.93 5.41c1.5.91 3.19 1.36 4.87 1.36s3.37-.45 4.87-1.36l9.08-5.5 3.52-2.13c.27-.16.53-.34.78-.54.08-.05.16-.11.23-.16.65-.53 1.23-1.13 1.71-1.79l.06-.09c.77-1.19 1.2-2.59 1.19-4.06-.01-2.62-1.35-4.99-3.6-6.33zm-.38-17.26-9.57-5.79-3.02-1.83c-.42-.26-.86-.47-1.31-.65-.49-.21-1-.37-1.51-.47-1.84-.38-3.76-.08-5.46.89-2.5 1.43-3.99 3.99-3.99 6.87v9.6l2.8-1.65a9.009 9.009 0 0 1 9.19.03l14.28 8.54c1.29.78 2.35 1.81 3.12 3.02L47 17.92c0-3.27-1.74-6.35-4.54-8.04z"/></svg>